<svg version="1.1" id="Layer_1" xmlns="http://www.w3.org/2000/svg" xmlns:xlink="http://www.w3.org/1999/xlink" x="0px" y="0px"
	 width="100%" viewBox="0 0 944 960" enable-background="new 0 0 944 960" xml:space="preserve">
<path fill="#000000" opacity="1.000000" stroke="none" 
	d="
M654.020264,517.994019 
	C652.861267,517.289673 651.963928,516.834290 651.178223,516.233215 
	C650.846436,515.979370 650.749573,515.418457 650.545044,514.995300 
	C656.823120,512.072876 674.121277,519.816833 688.656555,531.960754 
	C700.912415,542.200439 706.397278,552.101562 708.905884,568.954346 
	C718.017883,553.769653 726.022705,538.538208 733.303223,522.921814 
	C745.220703,497.359100 755.133972,471.042358 760.997681,443.421143 
	C766.015503,419.784576 769.145447,395.806122 767.519531,371.581177 
	C765.490601,341.351440 758.919250,312.103363 747.225342,284.015137 
	C738.701904,263.542145 728.090393,244.432663 712.928406,228.134720 
	C698.029358,212.119507 680.487488,200.273376 658.283508,197.540039 
	C632.540161,194.370972 609.598877,201.755066 589.142334,217.570023 
	C575.959412,227.761795 565.142822,240.091599 555.278931,253.380692 
	C554.078003,254.998688 553.411377,257.465912 550.678833,257.284790 
	C549.658325,256.396912 549.950928,255.423187 550.318115,254.479065 
	C562.661011,222.743011 580.766968,194.897110 609.240112,175.655151 
	C641.396240,153.924271 675.862122,149.933167 711.241272,168.381622 
	C735.377930,180.967682 752.878601,200.679581 767.790955,222.936035 
	C784.182983,247.400772 794.432678,274.448853 802.277710,302.696960 
	C812.659241,340.078491 815.637207,378.087921 812.129944,416.450409 
	C807.146301,470.960938 789.667297,521.619019 762.116150,568.888123 
	C744.774658,598.640503 724.462891,626.225708 701.652100,651.936035 
	C683.893311,671.952209 663.384644,688.892578 641.444885,704.244385 
	C623.664368,716.685852 607.017212,730.549377 594.781982,748.901611 
	C586.378845,761.505859 580.714600,775.265869 577.143555,789.959351 
	C576.481201,792.684875 576.785583,796.017944 573.063965,798.301147 
	C572.232239,793.610840 572.593140,789.356201 572.988953,785.209961 
	C573.779297,776.932312 574.812927,768.657410 577.241211,760.660461 
	C578.350586,757.006775 577.843079,754.770325 574.020081,752.690796 
	C551.724792,740.563232 535.820129,721.973328 522.422974,700.879333 
	C515.608948,690.150574 509.775818,678.987122 505.297241,667.078125 
	C501.278015,656.390625 498.006714,654.302307 486.660370,654.268494 
	C458.417511,654.184387 438.468872,637.726379 433.182678,610.110352 
	C431.345490,600.512451 434.313660,591.627441 437.528503,582.845398 
	C441.051880,573.220459 441.146240,573.275024 431.686188,569.688965 
	C420.645416,565.503784 409.667877,563.115906 397.560577,565.743958 
	C389.721924,567.445496 381.249573,565.965576 373.172821,566.888306 
	C357.788574,568.646118 342.457031,570.754211 326.921356,570.417297 
	C325.924011,570.395691 324.924255,570.510620 323.925873,570.506104 
	C321.831696,570.496582 320.321747,569.560730 320.022339,567.421692 
	C319.655273,564.799133 321.786102,564.437622 323.562164,564.201721 
	C339.013733,562.149963 353.683990,557.050476 368.353333,552.217041 
	C385.493378,546.569580 402.848022,542.020081 420.672333,539.418335 
	C435.895569,537.196350 450.677246,538.041016 463.356720,548.353455 
	C465.850403,550.381592 468.179901,549.760071 470.757904,548.479980 
	C477.807129,544.979614 485.250793,542.582153 493.006500,541.257385 
	C497.613098,540.470520 502.216949,540.551392 508.079285,542.305054 
	C501.654999,545.803467 495.724915,547.157349 490.103058,549.166382 
	C480.737030,552.513428 471.999054,556.822571 465.039795,564.102722 
	C444.337219,585.759644 451.669495,620.159485 482.510468,631.495178 
	C496.241760,636.542175 510.127716,634.718567 523.911743,632.207703 
	C551.503662,627.181519 577.090332,616.332214 602.280457,604.444031 
	C608.154114,601.671997 613.975586,598.788879 619.862976,596.046814 
	C621.557800,595.257507 623.688049,593.463562 625.130615,595.904541 
	C626.416077,598.079529 625.259216,600.130615 622.987732,601.231445 
	C619.843201,602.755554 618.034180,605.664246 615.869385,608.132751 
	C609.510742,615.383484 601.534851,619.804138 592.480652,622.781799 
	C575.057861,628.511719 558.639832,636.705505 541.844238,643.963257 
	C537.377869,645.893311 535.094482,649.751160 535.190369,654.792969 
	C535.282654,659.650208 536.153015,664.411560 537.390137,669.063477 
	C544.818848,696.998657 557.443726,722.262390 576.405701,744.222412 
	C576.948608,744.851196 577.499817,745.481567 578.114624,746.036499 
	C578.593262,746.468567 579.177002,746.784180 579.890564,747.272339 
	C582.447876,745.027771 583.158936,741.836060 584.405457,739.046997 
	C594.930786,715.497864 609.657349,694.820801 627.720276,676.575317 
	C649.363586,654.713257 668.805542,631.120728 685.734924,605.444397 
	C687.290955,603.084412 688.647278,600.485413 690.622864,598.529053 
	C696.885803,592.327087 695.841003,585.360413 693.556152,577.970398 
	C690.258057,567.303406 686.822021,556.713074 681.253052,546.956543 
	C681.170410,546.811768 681.120789,546.631348 681.003357,546.525818 
	C671.320496,537.822510 665.808594,525.192932 654.020264,517.994019 
z"/>
<path fill="#000000" opacity="1.000000" stroke="none" 
	d="
M88.671501,341.000122 
	C87.970146,310.088043 95.175842,281.173492 104.954117,252.675751 
	C114.631905,224.470886 128.603653,198.644440 148.020523,176.076935 
	C171.200562,149.135635 198.252701,126.961098 233.526108,118.289032 
	C266.097290,110.281311 298.489746,112.649750 329.070496,127.363770 
	C366.512329,145.378998 393.072327,174.389221 411.238342,211.424728 
	C411.674438,212.313797 412.062927,213.242371 412.324341,214.193527 
	C412.437775,214.606094 412.172211,215.122818 412.039001,215.791946 
	C409.120331,216.086441 408.035156,213.712173 406.624115,212.113297 
	C392.190491,195.758087 376.215515,181.111435 356.923828,170.775757 
	C324.021362,153.148026 289.468750,148.538483 253.672363,160.727051 
	C223.254730,171.084167 200.932083,191.880692 183.347458,218.077988 
	C165.781845,244.246994 154.325424,272.941284 148.051926,303.889618 
	C142.817902,329.709991 142.772186,355.388519 147.222229,381.230988 
	C155.074875,426.833130 174.587555,467.560913 199.205521,506.183960 
	C214.619965,530.367676 231.816345,553.239563 250.179733,575.232788 
	C253.312759,578.985107 256.113342,583.201050 260.572327,586.300293 
	C265.294128,579.644714 268.007660,572.266663 271.162689,565.178467 
	C280.413025,544.396545 285.927765,522.778870 284.799927,499.786346 
	C284.672882,497.196381 283.384430,494.541534 284.923889,491.950073 
	C285.557922,490.882751 286.322510,490.041260 287.665222,490.161285 
	C288.627960,490.247406 289.163940,490.973267 289.194031,491.848236 
	C289.468201,499.814789 293.834778,506.685699 295.040405,514.469421 
	C297.827576,532.463745 296.068970,549.934998 290.668701,567.214783 
	C287.234955,578.202087 282.872925,588.807007 277.902771,599.151062 
	C276.218567,602.656189 276.900635,604.971497 279.433228,607.519043 
	C290.486664,618.637756 302.342499,628.857483 314.290039,638.981140 
	C335.000977,656.530334 353.505707,675.998352 367.271820,699.629639 
	C378.072968,718.171021 383.124695,738.307617 384.210236,759.574097 
	C384.275116,760.845032 384.633484,762.247986 383.291016,763.539490 
	C380.653503,763.195740 380.319611,760.912598 379.856140,758.906860 
	C372.927216,728.922180 354.779053,706.922180 330.611847,689.035706 
	C313.704620,676.522400 295.341095,666.382690 277.452454,655.450012 
	C252.006104,639.898499 229.549088,620.572693 208.657028,599.423584 
	C186.262573,576.753601 165.378860,552.775208 147.492523,526.321411 
	C125.791908,494.226257 109.199104,459.722412 98.520248,422.412933 
	C90.945610,395.948883 87.505142,369.012634 88.671501,341.000122 
z"/>
<path fill="#000000" opacity="1.000000" stroke="none" 
	d="
M210.470245,402.655029 
	C206.460373,412.064911 207.572418,421.366333 209.730957,430.452423 
	C215.431381,454.447540 229.262253,473.201172 248.298203,488.389343 
	C249.976395,489.728302 251.971954,490.666565 253.804718,491.815491 
	C256.349670,493.410950 257.789398,495.640900 257.950378,498.719604 
	C255.321014,499.964691 252.748596,499.552887 250.397125,499.140381 
	C213.622543,492.689209 187.716461,472.232910 172.697479,438.127045 
	C169.672699,431.258270 168.401459,423.754272 167.821075,416.295013 
	C166.575592,400.287933 172.629456,391.042053 187.749435,384.976929 
	C195.166458,382.001709 195.372620,381.945587 193.367615,374.581299 
	C189.059799,358.758942 186.226654,342.642822 186.269653,326.302338 
	C186.348389,296.379883 192.739380,268.335907 214.699951,246.110504 
	C229.426956,231.205933 247.621262,223.303986 268.311005,220.798065 
	C277.642792,219.667786 286.918152,219.770828 296.173981,221.403320 
	C298.978668,221.898010 301.533661,220.940460 303.834381,219.650665 
	C329.537292,205.241730 356.256409,206.598282 383.184753,214.937881 
	C409.103516,222.964813 430.997925,237.501633 448.436249,258.316376 
	C462.858246,275.530762 471.497559,295.530853 475.220520,317.670074 
	C475.569275,319.743958 476.196777,321.770935 476.937988,324.819580 
	C481.288147,318.706970 484.874298,313.179688 488.945099,308.035980 
	C503.334656,289.853912 519.710388,273.926178 540.783813,263.494781 
	C559.034668,254.460526 578.167175,251.876831 598.069702,256.130341 
	C627.389099,262.396393 654.078064,275.106903 679.794373,290.093964 
	C689.596802,295.806671 699.048096,301.862244 706.201416,311.052094 
	C716.032532,323.682068 720.014526,337.971497 720.526611,353.760895 
	C721.328979,378.498627 714.625671,401.226196 704.922668,423.718628 
	C699.984192,435.166595 696.067078,446.815094 685.994019,454.730530 
	C680.381042,459.141266 676.165222,464.304688 672.774292,470.494934 
	C669.755615,476.005707 665.263672,479.896240 659.122925,482.321594 
	C655.286560,483.836823 652.184082,487.263458 648.830994,489.931396 
	C646.325989,491.924591 643.741638,492.994324 640.408264,491.484833 
	C640.286316,488.763855 642.287720,487.278259 643.881897,485.774292 
	C661.817993,468.853333 674.429810,448.390106 682.575500,425.362518 
	C690.663025,402.499084 693.559448,379.121277 685.200745,355.450134 
	C678.210327,335.654022 665.200745,321.106018 646.768066,311.413635 
	C636.913879,306.232056 626.832336,301.476349 616.889404,296.461212 
	C596.433350,286.143372 574.854431,285.713501 553.258545,292.651886 
	C526.026306,301.401215 504.563538,317.633484 490.674652,343.050293 
	C488.374756,347.259094 486.235291,351.596222 485.026581,356.314636 
	C483.050537,364.028564 484.991974,366.849243 492.850311,367.613190 
	C507.686127,369.055542 522.070129,366.926239 536.183350,362.353851 
	C548.437561,358.383759 559.786926,352.447968 571.163208,346.551941 
	C572.412598,345.904419 573.512512,344.545563 576.103088,345.935608 
	C565.755737,361.091919 553.157166,373.346710 536.500366,380.954681 
	C519.648376,388.651794 502.036133,390.375763 483.616547,385.771545 
	C483.578094,391.761780 485.740173,396.601562 487.803375,401.435364 
	C491.551270,410.216309 494.582916,419.113739 494.407928,428.871368 
	C494.327393,433.362854 493.305542,437.442230 490.877625,441.154083 
	C485.686401,449.090393 484.465363,457.795288 485.628479,467.014862 
	C485.940643,469.489319 486.065460,471.986816 486.309235,474.470520 
	C487.017578,481.687622 492.288391,486.707733 499.524963,486.858185 
	C505.301605,486.978241 511.082764,486.882446 517.324097,486.882446 
	C514.121338,494.527893 508.263245,496.136322 496.785736,493.618927 
	C504.550476,497.158447 506.427521,504.042084 507.426941,511.545197 
	C508.922516,522.773071 514.393005,527.415039 525.821594,527.752075 
	C544.424194,528.300659 561.662842,523.068909 578.366516,515.544312 
	C584.437683,512.809448 590.428162,509.894684 596.443054,507.035828 
	C597.641541,506.466156 598.769653,505.600464 600.123657,506.780731 
	C600.852539,508.884888 599.089722,509.728973 597.948425,510.782227 
	C581.855286,525.633667 562.669373,533.571899 541.118835,536.422058 
	C531.390930,537.708679 521.869080,537.508057 512.565613,534.178101 
	C506.254822,531.919312 502.491791,527.339966 500.912170,520.890686 
	C500.833160,520.567993 500.823059,520.228638 500.746948,519.905029 
	C498.079926,508.569000 495.493164,507.241760 484.742065,511.761688 
	C448.157196,527.142456 410.579956,529.073486 372.224762,519.969604 
	C368.168121,519.006775 364.387390,517.094360 360.994049,514.638184 
	C350.567047,507.090881 343.534393,496.541626 335.742615,486.533569 
	C338.420074,483.047791 340.855042,484.122406 343.230927,486.063446 
	C359.707214,499.523804 378.467438,507.981445 399.383789,511.686523 
	C421.542328,515.611633 443.502991,513.725037 465.352570,509.249939 
	C470.406982,508.214691 475.454163,507.101959 480.437347,505.772461 
	C485.913544,504.311401 486.977875,501.712341 484.650085,496.444672 
	C482.359955,491.262207 479.691681,486.304535 476.244324,481.782928 
	C472.666046,477.089539 471.520142,471.676666 471.984283,465.885712 
	C468.923401,464.689697 465.186798,466.133820 463.201416,462.814301 
	C463.254059,462.462952 463.202667,461.932922 463.363373,461.858002 
	C472.839783,457.440582 474.597046,447.827545 479.029022,439.761383 
	C483.166931,432.230438 481.618896,425.998291 478.714844,419.142609 
	C473.633087,407.145966 467.523224,395.712250 460.147003,384.978333 
	C458.224487,382.180603 457.789581,379.600647 458.486023,376.139740 
	C459.985077,368.690857 460.692200,361.082611 461.826752,352.783966 
	C453.020233,356.972900 456.807983,367.998444 449.853821,372.370636 
	C442.990173,366.308350 442.186279,356.688446 447.631683,347.159058 
	C449.282288,344.270599 451.095764,341.469727 452.939240,338.698273 
	C455.839661,334.337830 455.874146,330.005188 453.030365,325.639587 
	C449.201599,319.761932 443.687439,315.723602 437.826294,312.193176 
	C423.199921,303.383179 406.576599,300.056458 390.467957,295.386536 
	C381.329895,292.737427 372.460785,289.397430 363.637085,285.915619 
	C358.545624,283.906555 353.842682,281.173553 350.234039,276.336334 
	C378.569122,277.220306 406.985596,276.020721 436.036682,284.004608 
	C429.851471,274.227112 422.977997,267.094879 415.239624,260.818054 
	C387.967896,238.697220 356.379272,230.070389 321.708374,231.147812 
	C307.332367,231.594543 293.126678,232.950287 279.570709,238.190445 
	C256.338715,247.170944 241.690994,264.523682 232.199127,286.885437 
	C219.836823,316.009674 217.757599,346.070374 223.866898,376.915314 
	C225.475906,385.038940 224.372116,392.217529 216.080261,396.541382 
	C213.656265,397.805420 212.210037,400.154846 210.470245,402.655029 
z"/>
<path fill="#000000" opacity="1.000000" stroke="none" 
	d="
M675.205933,815.956055 
	C675.868469,822.533203 676.199585,828.695496 677.224976,834.739990 
	C678.345703,841.345886 679.448914,841.991333 686.297363,841.797974 
	C689.260254,841.714294 692.317993,842.103516 695.507446,840.482483 
	C686.804138,830.680359 685.574768,819.457886 689.655334,807.540100 
	C692.958984,797.891418 701.637146,792.752014 710.603577,794.715576 
	C715.036743,795.686340 718.488281,798.301147 721.061707,801.909790 
	C723.147400,804.834656 722.770813,808.121338 720.514038,810.697571 
	C718.443359,813.061279 715.734985,812.374939 713.202759,810.936401 
	C709.729797,808.963562 705.805969,807.559814 702.417908,810.221130 
	C698.634277,813.193176 698.551941,817.705261 699.610229,822.176331 
	C700.875427,827.521484 703.839783,831.503296 708.878113,833.849426 
	C710.237244,834.482239 711.600769,835.108765 712.933838,835.793762 
	C719.634583,839.236694 720.077576,845.349121 714.034119,849.982178 
	C709.803833,853.225159 704.792725,854.578003 699.784485,855.754456 
	C696.078918,856.624939 692.227539,857.065796 688.418274,857.267395 
	C677.459412,857.847229 677.454895,857.761353 669.117737,851.659668 
	C654.768738,859.889648 651.042603,859.541382 640.809814,848.770996 
	C636.840515,853.052734 632.578918,856.934021 626.268616,857.268188 
	C619.657471,857.618225 615.475098,853.736755 611.482788,848.575012 
	C607.672852,852.870911 604.013489,857.081055 597.907104,857.064392 
	C591.835510,857.047852 587.583679,853.910522 584.316711,848.503601 
	C580.949524,851.913818 577.810791,854.911499 573.500671,856.089661 
	C563.231445,858.896606 554.579468,853.538879 550.975342,841.779297 
	C548.231750,832.827515 547.195862,823.531555 546.288330,814.243103 
	C545.091797,801.998352 543.926758,789.750244 542.828491,777.496338 
	C542.682129,775.862976 542.714417,774.101013 543.174011,772.549683 
	C544.101501,769.418945 546.198853,767.249207 549.686218,767.409607 
	C553.229187,767.572632 555.027344,769.786255 555.300781,773.257568 
	C555.940674,781.381104 556.783264,789.496338 557.140381,797.632690 
	C557.622437,808.617310 558.813049,819.516663 560.264465,830.399719 
	C560.308533,830.729980 560.301819,831.071838 560.383911,831.391479 
	C561.531189,835.857239 562.965698,840.369263 568.182434,841.336182 
	C572.200928,842.081055 577.062378,837.299500 578.437805,831.901855 
	C579.053406,829.486023 579.335876,826.982544 580.000610,824.582825 
	C580.638794,822.279175 582.257019,820.929932 584.756531,820.902466 
	C587.385864,820.873718 589.371399,821.995911 590.022278,824.597046 
	C590.625427,827.007263 591.001282,829.501709 591.190186,831.980896 
	C591.388794,834.586304 592.365356,836.841248 593.780884,838.912781 
	C595.214661,841.010986 597.363220,841.869446 599.874451,841.541504 
	C602.329163,841.220886 603.577576,839.489563 604.319092,837.317383 
	C605.199036,834.739563 605.032654,832.066895 605.033691,829.398499 
	C605.034912,826.409668 604.946350,823.387573 605.347107,820.441284 
	C605.751404,817.469116 607.721863,815.700806 610.861389,815.716736 
	C613.995605,815.732605 615.774658,817.510010 616.344604,820.488037 
	C617.061768,824.235107 617.482361,828.050049 618.402466,831.743164 
	C618.997070,834.129944 619.964050,836.537354 621.279785,838.607849 
	C624.153503,843.130005 630.170044,842.585754 632.483643,837.743225 
	C634.607361,833.298157 633.297729,828.958069 632.018250,824.616272 
	C631.133118,821.612610 629.761414,818.729126 630.579590,815.391113 
	C631.284851,812.513611 632.623535,810.340942 635.731384,810.129761 
	C638.504456,809.941345 640.243103,811.499756 641.479553,814.050049 
	C643.841797,818.922607 644.127502,824.361511 646.002014,829.346375 
	C646.819519,831.520447 647.491089,833.779968 648.575378,835.816284 
	C650.357056,839.162292 652.713379,842.077209 657.074341,841.525940 
	C660.811279,841.053589 664.517273,836.413269 664.657593,832.062927 
	C664.911194,824.198975 663.262512,816.493713 662.342285,808.737915 
	C661.127747,798.501038 659.459351,788.318481 658.053284,778.103271 
	C657.874878,776.807190 657.887085,775.405029 658.182739,774.138855 
	C659.022705,770.541931 661.171570,767.989929 665.070496,768.132141 
	C668.730042,768.265686 670.799866,770.724243 671.182556,774.273132 
	C672.270020,784.357727 673.226196,794.456543 674.211792,804.552002 
	C674.567383,808.194580 674.859436,811.843323 675.205933,815.956055 
z"/>
<path fill="#000000" opacity="1.000000" stroke="none" 
	d="
M332.677185,338.769226 
	C341.901581,320.973938 346.311768,302.183655 348.110168,282.901886 
	C350.949799,282.301636 351.935883,284.047028 352.272583,285.477142 
	C353.518890,290.770599 356.096893,295.642303 356.314423,301.293365 
	C357.430084,330.279877 349.518097,357.224182 338.161255,383.414246 
	C328.966888,404.617371 319.239746,425.662811 313.659027,448.171143 
	C309.375458,465.447845 308.483551,483.046661 312.755768,500.584259 
	C314.720734,508.650452 316.870239,516.671631 318.918884,524.717590 
	C319.273895,526.111816 319.542969,527.527771 319.831116,528.839844 
	C317.765259,529.956360 317.040771,528.542358 316.323608,527.543945 
	C308.555176,516.729370 300.658478,505.987030 294.901733,493.897430 
	C290.174194,483.969238 288.422943,473.328979 287.667023,462.478058 
	C285.766754,435.200928 294.311615,410.735596 307.528259,387.404022 
	C316.463348,371.630798 324.764435,355.504730 332.677185,338.769226 
z"/>
<path fill="#000000" opacity="1.000000" stroke="none" 
	d="
M424.632904,829.067139 
	C424.702820,821.144897 426.992157,814.533752 432.172760,809.080566 
	C441.070526,799.714661 453.499115,800.831848 460.448212,811.718262 
	C465.176514,819.125549 466.601562,827.461670 466.244965,836.079651 
	C465.538940,853.140930 460.564270,868.786621 449.851074,882.282959 
	C444.231110,889.363159 436.572418,892.647461 427.598267,892.759460 
	C421.186584,892.839478 414.188843,888.361206 412.363617,883.245728 
	C411.463013,880.721741 411.567932,878.282776 413.355316,876.199280 
	C415.013428,874.266296 417.140015,874.508423 419.314880,875.280762 
	C432.346497,879.908081 441.369110,876.205688 447.849976,863.493469 
	C449.027283,861.184143 450.362640,858.846985 450.059937,855.541565 
	C440.645172,857.455566 433.258209,854.451965 428.192596,846.349243 
	C424.972229,841.198059 424.522736,835.417053 424.632904,829.067139 
M447.811646,818.660950 
	C444.290375,816.163147 441.389587,817.892334 438.959442,820.330444 
	C434.482147,824.822571 435.655762,836.545349 440.764038,840.302856 
	C445.352325,843.677856 454.594635,841.547607 454.434998,836.917542 
	C454.214691,830.528687 453.821075,823.858826 447.811646,818.660950 
z"/>
<path fill="#000000" opacity="1.000000" stroke="none" 
	d="
M522.996826,573.198303 
	C517.017883,574.733215 511.439392,576.202515 505.738586,576.295227 
	C505.213287,574.839783 505.765625,574.287903 506.572937,573.903931 
	C519.297546,567.850037 530.219116,559.049988 541.606873,550.953369 
	C554.351379,541.892090 566.795898,532.351074 581.387390,526.240356 
	C594.392395,520.794067 607.439880,519.784302 620.708496,525.286865 
	C624.152161,526.714966 626.795593,529.009155 629.692688,531.758911 
	C628.677124,532.452515 628.184998,533.075378 627.655945,533.108521 
	C608.975098,534.277222 592.124512,541.279663 575.602356,549.349060 
	C558.414429,557.743652 541.743103,567.273438 522.996826,573.198303 
z"/>
<path fill="#000000" opacity="1.000000" stroke="none" 
	d="
M290.487976,850.568054 
	C279.358124,858.641235 267.123016,855.279907 262.044281,842.908447 
	C257.687958,832.296692 257.176666,820.880371 255.762299,809.705627 
	C254.323151,798.335022 253.583008,786.875122 252.600510,775.448792 
	C252.473785,773.974915 252.561462,772.436035 252.840515,770.983093 
	C253.522964,767.429871 255.865387,765.225647 259.387390,765.260132 
	C263.138062,765.296692 264.959167,768.036194 265.237885,771.541382 
	C265.975220,780.814575 266.615784,790.096619 267.172211,799.382568 
	C267.838715,810.506287 268.659729,821.619141 271.297607,832.474243 
	C272.526459,837.531067 275.970856,839.527832 281.017853,838.881287 
	C285.318359,838.330383 288.481140,835.025696 288.815186,830.537781 
	C289.062927,827.209717 288.845306,823.924500 287.920319,820.654846 
	C287.111176,817.794861 286.237946,814.877747 286.729584,811.817383 
	C287.208221,808.837646 288.287811,806.292480 291.707245,805.788940 
	C295.026825,805.300232 297.340393,806.979797 298.302612,809.918762 
	C301.657745,820.166992 302.511261,841.234558 290.487976,850.568054 
z"/>
<path fill="#000000" opacity="1.000000" stroke="none" 
	d="
M517.572144,889.807617 
	C500.541901,897.578613 484.403351,889.454712 479.315216,870.593872 
	C476.205750,859.067627 477.688629,847.821777 482.778717,837.048218 
	C484.062836,834.330322 485.766205,831.858521 489.228455,832.972229 
	C492.791229,834.118103 493.280975,837.335144 492.566559,840.384949 
	C491.003510,847.057617 489.587250,853.672424 490.302887,860.613037 
	C491.422638,871.473267 499.211609,878.662231 509.153290,877.772339 
	C516.826904,877.085449 522.869629,869.356812 523.768433,859.355774 
	C524.406006,852.260437 523.250183,845.397766 521.378479,838.631836 
	C520.648315,835.992432 520.520325,833.375732 520.710938,830.721497 
	C520.940674,827.522278 522.696106,825.393188 525.876099,824.862610 
	C529.175720,824.312073 531.246033,826.164734 532.478638,829.027893 
	C534.084656,832.758728 534.371582,836.797302 534.747681,840.750366 
	C536.023376,854.160095 536.013855,867.397034 528.574341,879.460999 
	C525.890198,883.813599 522.653809,887.485352 517.572144,889.807617 
z"/>
<path fill="#000000" opacity="1.000000" stroke="none" 
	d="
M406.625092,766.404175 
	C410.407990,767.315857 411.609467,769.840393 412.271545,772.997620 
	C414.502441,783.636047 413.682495,794.550171 415.288971,805.234436 
	C416.357666,812.341858 416.376770,819.481750 416.276550,826.631409 
	C416.056519,842.328796 404.583557,854.510254 388.883148,856.460876 
	C380.188690,857.540955 371.615784,856.916199 362.998566,856.208740 
	C360.675110,856.018066 358.397308,855.445984 356.354858,854.240601 
	C352.565002,852.003662 351.995850,848.441528 353.007599,844.672241 
	C354.046204,840.802917 357.169525,839.798157 360.858978,840.169006 
	C368.467560,840.933655 376.055939,841.856628 383.736511,841.718689 
	C389.395782,841.617065 394.531738,840.005066 399.345337,837.169922 
	C403.807465,834.541809 404.548981,830.114563 404.788422,825.529785 
	C405.347534,814.825256 403.337402,804.314819 402.214630,793.742615 
	C401.548645,787.471313 400.303528,781.255737 399.780914,774.976685 
	C399.312317,769.346924 401.141602,767.274841 406.625092,766.404175 
z"/>
<path fill="#000000" opacity="1.000000" stroke="none" 
	d="
M636.056396,463.033752 
	C639.516235,457.100922 641.190674,451.045166 640.536743,444.575562 
	C639.827271,437.556305 635.394897,433.601501 627.511719,432.358978 
	C624.464355,431.878693 621.418945,431.386780 618.251038,430.880737 
	C622.589783,421.913605 633.992432,418.499451 641.637268,423.460754 
	C653.111084,430.906952 657.661743,443.410767 653.617249,457.054688 
	C649.971802,469.352509 642.600281,478.959564 631.722351,485.740051 
	C622.788452,491.308685 609.630127,490.051788 600.500061,482.295441 
	C615.758484,481.462891 628.233521,476.615570 636.056396,463.033752 
z"/>
<path fill="#000000" opacity="1.000000" stroke="none" 
	d="
M305.170593,850.644653 
	C306.549469,847.339600 308.936249,846.753479 311.816498,846.629456 
	C317.125275,846.400696 322.461761,846.081421 327.537109,844.287903 
	C334.554474,841.808228 336.684875,837.698853 334.177094,830.821716 
	C332.530762,826.306885 330.425049,821.951416 328.371094,817.597168 
	C327.414856,815.570007 326.835968,813.575806 327.239624,811.351624 
	C327.747345,808.554016 329.019531,806.177185 331.873901,805.388245 
	C334.867950,804.560669 337.126556,806.234070 338.520203,808.671875 
	C345.479340,820.845154 348.442444,833.666504 343.842560,847.395935 
	C342.488495,851.437439 339.554108,854.476318 335.840607,856.660583 
	C329.044525,860.658020 321.629608,862.306213 313.838623,861.933228 
	C306.051453,861.560425 304.155304,859.032471 305.170593,850.644653 
z"/>
<path fill="#000000" opacity="1.000000" stroke="none" 
	d="
M592.483032,402.498840 
	C584.797363,393.063690 578.137573,383.570465 579.744690,370.821198 
	C580.585999,364.147278 583.442566,358.380920 587.880554,352.586029 
	C590.168640,356.848297 588.974487,360.747833 589.566650,364.390747 
	C591.631836,377.096527 597.869263,387.728302 605.499268,397.730011 
	C608.651672,401.862335 611.391235,406.182678 611.845886,411.547760 
	C612.212769,415.876373 611.191956,419.669342 607.277405,423.161163 
	C602.916626,415.639862 597.861938,409.170685 592.483032,402.498840 
z"/>
<path fill="#000000" opacity="1.000000" stroke="none" 
	d="
M385.166504,798.030151 
	C387.617310,807.243835 390.055420,816.039551 391.678589,825.042297 
	C392.405670,829.075012 391.409729,832.138672 387.282043,833.184753 
	C383.156464,834.230347 381.204651,831.568359 380.142578,828.008423 
	C377.248901,818.309387 374.350433,808.611877 371.455048,798.913391 
	C371.359924,798.594666 371.262665,798.275574 371.190887,797.951172 
	C369.857300,791.926453 371.698822,787.226013 375.779114,786.230164 
	C379.454834,785.333069 382.403503,788.157959 384.160614,794.270142 
	C384.481750,795.387451 384.776550,796.512268 385.166504,798.030151 
z"/>
<path fill="#000000" opacity="1.000000" stroke="none" 
	d="
M604.549072,798.611145 
	C603.613892,800.005371 602.869202,801.104370 602.142395,802.215210 
	C600.028809,805.445374 597.319153,807.442078 593.371643,805.646240 
	C590.230164,804.216980 588.568848,799.134338 590.365967,795.570984 
	C593.380737,789.593384 597.602295,784.472046 602.933960,780.345886 
	C605.628662,778.260437 608.413574,778.908936 610.739380,780.772034 
	C614.743347,783.979492 618.654846,787.338684 622.308655,790.935364 
	C625.223328,793.804382 625.148438,799.392761 622.512573,801.763489 
	C619.007202,804.916199 616.445801,802.285645 613.852722,800.202454 
	C612.948975,799.476440 612.055237,798.704041 611.306396,797.825439 
	C608.856750,794.951355 606.694275,794.982239 604.549072,798.611145 
z"/>
<path fill="#000000" opacity="1.000000" stroke="none" 
	d="
M379.435730,386.983307 
	C376.451172,387.332977 377.035461,385.905823 377.754578,384.358917 
	C385.335632,368.051056 411.415497,356.428802 428.787659,361.635223 
	C428.915070,361.673401 428.990356,361.885468 429.184296,362.140289 
	C429.559540,364.369629 427.549774,365.071136 426.232971,366.142944 
	C418.963013,372.060120 410.342377,374.959778 401.419617,377.234344 
	C393.665222,379.211121 386.081299,381.651886 379.435730,386.983307 
z"/>
<path fill="#000000" opacity="1.000000" stroke="none" 
	d="
M403.207245,408.322784 
	C397.204285,407.887512 392.327393,405.748169 386.359589,402.334381 
	C399.041840,397.943298 412.585236,398.533539 420.478943,387.237213 
	C426.167114,391.463776 426.013489,399.719360 420.592346,403.933472 
	C415.557007,407.847687 409.834839,408.886780 403.207245,408.322784 
z"/>
<path fill="#000000" opacity="1.000000" stroke="none" 
	d="
M277.084320,790.038940 
	C277.491577,787.360596 277.785858,785.081238 279.332611,783.162598 
	C282.793182,778.869995 288.412689,778.855408 291.513550,783.409851 
	C294.155457,787.290222 294.076813,791.581665 291.995422,795.644531 
	C290.285065,798.983093 287.128326,800.173401 283.564423,799.342346 
	C278.998444,798.277649 277.517883,794.664551 277.084320,790.038940 
z"/>
<path fill="#000000" opacity="1.000000" stroke="none" 
	d="
M499.800537,805.047485 
	C502.691528,801.154846 506.024750,800.023376 509.980957,802.455811 
	C513.700378,804.742676 515.190430,811.200317 513.115356,816.006165 
	C511.580627,819.560852 508.838013,821.568909 504.812286,820.879456 
	C500.981049,820.223267 498.051788,816.064026 497.931702,811.562317 
	C497.872070,809.327698 498.495850,807.294189 499.800537,805.047485 
z"/>
<path fill="#000000" opacity="1.000000" stroke="none" 
	d="
M526.511414,438.550171 
	C518.639465,442.919403 507.735199,439.438782 503.848511,431.691071 
	C512.658813,428.496552 521.379150,430.991394 526.511414,438.550171 
z"/>
</svg>